<mxfile host="drawio.corp.amazon.com" modified="2024-06-24T03:27:34.273Z" agent="Mozilla/5.0 (Macintosh; Intel Mac OS X 10_15_7) AppleWebKit/537.36 (KHTML, like Gecko) Chrome/126.0.0.0 Safari/537.36" etag="CCMFqAocvVZBV55RqhtI" version="21.7.4" type="device">
  <diagram name="ページ1" id="UfDups6dr2zUMDnh6Dib">
    <mxGraphModel dx="1434" dy="786" grid="1" gridSize="10" guides="1" tooltips="1" connect="1" arrows="1" fold="1" page="1" pageScale="1" pageWidth="827" pageHeight="1169" math="0" shadow="0">
      <root>
        <mxCell id="0" />
        <mxCell id="1" parent="0" />
        <mxCell id="ZMr_ggHSKK7B4-azLc8F-4" style="edgeStyle=orthogonalEdgeStyle;rounded=0;orthogonalLoop=1;jettySize=auto;html=1;" edge="1" parent="1" source="ZMr_ggHSKK7B4-azLc8F-1" target="ZMr_ggHSKK7B4-azLc8F-2">
          <mxGeometry relative="1" as="geometry">
            <Array as="points">
              <mxPoint x="350" y="319" />
              <mxPoint x="350" y="220" />
            </Array>
          </mxGeometry>
        </mxCell>
        <mxCell id="ZMr_ggHSKK7B4-azLc8F-7" style="edgeStyle=orthogonalEdgeStyle;rounded=0;orthogonalLoop=1;jettySize=auto;html=1;" edge="1" parent="1" source="ZMr_ggHSKK7B4-azLc8F-1" target="ZMr_ggHSKK7B4-azLc8F-6">
          <mxGeometry relative="1" as="geometry" />
        </mxCell>
        <mxCell id="ZMr_ggHSKK7B4-azLc8F-12" style="edgeStyle=orthogonalEdgeStyle;rounded=0;orthogonalLoop=1;jettySize=auto;html=1;entryX=0.5;entryY=0;entryDx=0;entryDy=0;entryPerimeter=0;" edge="1" parent="1" source="ZMr_ggHSKK7B4-azLc8F-1" target="ZMr_ggHSKK7B4-azLc8F-11">
          <mxGeometry relative="1" as="geometry" />
        </mxCell>
        <mxCell id="ZMr_ggHSKK7B4-azLc8F-19" style="edgeStyle=orthogonalEdgeStyle;rounded=0;orthogonalLoop=1;jettySize=auto;html=1;entryX=0;entryY=0.5;entryDx=0;entryDy=0;entryPerimeter=0;" edge="1" parent="1" source="ZMr_ggHSKK7B4-azLc8F-1" target="ZMr_ggHSKK7B4-azLc8F-9">
          <mxGeometry relative="1" as="geometry">
            <Array as="points">
              <mxPoint x="350" y="319" />
              <mxPoint x="350" y="409" />
            </Array>
          </mxGeometry>
        </mxCell>
        <mxCell id="ZMr_ggHSKK7B4-azLc8F-1" value="AWS Amplify&lt;br&gt;Frontend" style="sketch=0;points=[[0,0,0],[0.25,0,0],[0.5,0,0],[0.75,0,0],[1,0,0],[0,1,0],[0.25,1,0],[0.5,1,0],[0.75,1,0],[1,1,0],[0,0.25,0],[0,0.5,0],[0,0.75,0],[1,0.25,0],[1,0.5,0],[1,0.75,0]];outlineConnect=0;fontColor=#232F3E;fillColor=#DD344C;strokeColor=#ffffff;dashed=0;verticalLabelPosition=middle;verticalAlign=middle;align=right;html=1;fontSize=12;fontStyle=0;aspect=fixed;shape=mxgraph.aws4.resourceIcon;resIcon=mxgraph.aws4.amplify;labelPosition=left;" vertex="1" parent="1">
          <mxGeometry x="240" y="280" width="78" height="78" as="geometry" />
        </mxCell>
        <mxCell id="ZMr_ggHSKK7B4-azLc8F-18" style="edgeStyle=orthogonalEdgeStyle;rounded=0;orthogonalLoop=1;jettySize=auto;html=1;" edge="1" parent="1" source="ZMr_ggHSKK7B4-azLc8F-2" target="ZMr_ggHSKK7B4-azLc8F-3">
          <mxGeometry relative="1" as="geometry" />
        </mxCell>
        <mxCell id="ZMr_ggHSKK7B4-azLc8F-2" value="Amazon Cognito&lt;br&gt;Sign Up" style="sketch=0;points=[[0,0,0],[0.25,0,0],[0.5,0,0],[0.75,0,0],[1,0,0],[0,1,0],[0.25,1,0],[0.5,1,0],[0.75,1,0],[1,1,0],[0,0.25,0],[0,0.5,0],[0,0.75,0],[1,0.25,0],[1,0.5,0],[1,0.75,0]];outlineConnect=0;fontColor=#232F3E;fillColor=#DD344C;strokeColor=#ffffff;dashed=0;verticalLabelPosition=bottom;verticalAlign=top;align=center;html=1;fontSize=12;fontStyle=0;aspect=fixed;shape=mxgraph.aws4.resourceIcon;resIcon=mxgraph.aws4.cognito;" vertex="1" parent="1">
          <mxGeometry x="392" y="181" width="78" height="78" as="geometry" />
        </mxCell>
        <mxCell id="ZMr_ggHSKK7B4-azLc8F-15" style="edgeStyle=orthogonalEdgeStyle;rounded=0;orthogonalLoop=1;jettySize=auto;html=1;" edge="1" parent="1" source="ZMr_ggHSKK7B4-azLc8F-3" target="ZMr_ggHSKK7B4-azLc8F-8">
          <mxGeometry relative="1" as="geometry" />
        </mxCell>
        <mxCell id="ZMr_ggHSKK7B4-azLc8F-3" value="AWS Lambda&lt;br&gt;Pre Sign Up Trigger" style="sketch=0;points=[[0,0,0],[0.25,0,0],[0.5,0,0],[0.75,0,0],[1,0,0],[0,1,0],[0.25,1,0],[0.5,1,0],[0.75,1,0],[1,1,0],[0,0.25,0],[0,0.5,0],[0,0.75,0],[1,0.25,0],[1,0.5,0],[1,0.75,0]];outlineConnect=0;fontColor=#232F3E;fillColor=#ED7100;strokeColor=#ffffff;dashed=0;verticalLabelPosition=bottom;verticalAlign=top;align=center;html=1;fontSize=12;fontStyle=0;aspect=fixed;shape=mxgraph.aws4.resourceIcon;resIcon=mxgraph.aws4.lambda;" vertex="1" parent="1">
          <mxGeometry x="510" y="180" width="80" height="80" as="geometry" />
        </mxCell>
        <mxCell id="ZMr_ggHSKK7B4-azLc8F-17" style="edgeStyle=orthogonalEdgeStyle;rounded=0;orthogonalLoop=1;jettySize=auto;html=1;" edge="1" parent="1" source="ZMr_ggHSKK7B4-azLc8F-5" target="ZMr_ggHSKK7B4-azLc8F-11">
          <mxGeometry relative="1" as="geometry">
            <Array as="points">
              <mxPoint x="669" y="540" />
              <mxPoint x="474" y="540" />
              <mxPoint x="474" y="539" />
            </Array>
          </mxGeometry>
        </mxCell>
        <mxCell id="ZMr_ggHSKK7B4-azLc8F-20" style="edgeStyle=orthogonalEdgeStyle;rounded=0;orthogonalLoop=1;jettySize=auto;html=1;" edge="1" parent="1" source="ZMr_ggHSKK7B4-azLc8F-5" target="ZMr_ggHSKK7B4-azLc8F-6">
          <mxGeometry relative="1" as="geometry">
            <Array as="points">
              <mxPoint x="750" y="409" />
              <mxPoint x="750" y="50" />
              <mxPoint x="279" y="50" />
            </Array>
          </mxGeometry>
        </mxCell>
        <mxCell id="ZMr_ggHSKK7B4-azLc8F-5" value="Amazon Rekognition&lt;br&gt;FaceCompare&lt;br&gt;" style="sketch=0;points=[[0,0,0],[0.25,0,0],[0.5,0,0],[0.75,0,0],[1,0,0],[0,1,0],[0.25,1,0],[0.5,1,0],[0.75,1,0],[1,1,0],[0,0.25,0],[0,0.5,0],[0,0.75,0],[1,0.25,0],[1,0.5,0],[1,0.75,0]];outlineConnect=0;fontColor=#232F3E;fillColor=#01A88D;strokeColor=#ffffff;dashed=0;verticalLabelPosition=top;verticalAlign=bottom;align=center;html=1;fontSize=12;fontStyle=0;aspect=fixed;shape=mxgraph.aws4.resourceIcon;resIcon=mxgraph.aws4.rekognition_2;labelPosition=center;" vertex="1" parent="1">
          <mxGeometry x="630" y="370" width="78" height="78" as="geometry" />
        </mxCell>
        <mxCell id="ZMr_ggHSKK7B4-azLc8F-6" value="Amazon S3&lt;br&gt;Sign Up Image" style="sketch=0;points=[[0,0,0],[0.25,0,0],[0.5,0,0],[0.75,0,0],[1,0,0],[0,1,0],[0.25,1,0],[0.5,1,0],[0.75,1,0],[1,1,0],[0,0.25,0],[0,0.5,0],[0,0.75,0],[1,0.25,0],[1,0.5,0],[1,0.75,0]];outlineConnect=0;fontColor=#232F3E;fillColor=#7AA116;strokeColor=#ffffff;dashed=0;verticalLabelPosition=middle;verticalAlign=middle;align=right;html=1;fontSize=12;fontStyle=0;aspect=fixed;shape=mxgraph.aws4.resourceIcon;resIcon=mxgraph.aws4.s3;labelPosition=left;" vertex="1" parent="1">
          <mxGeometry x="240" y="80" width="78" height="78" as="geometry" />
        </mxCell>
        <mxCell id="ZMr_ggHSKK7B4-azLc8F-16" style="edgeStyle=orthogonalEdgeStyle;rounded=0;orthogonalLoop=1;jettySize=auto;html=1;entryX=1;entryY=0.5;entryDx=0;entryDy=0;entryPerimeter=0;" edge="1" parent="1" source="ZMr_ggHSKK7B4-azLc8F-8" target="ZMr_ggHSKK7B4-azLc8F-6">
          <mxGeometry relative="1" as="geometry">
            <Array as="points">
              <mxPoint x="669" y="119" />
            </Array>
          </mxGeometry>
        </mxCell>
        <mxCell id="ZMr_ggHSKK7B4-azLc8F-8" value="Amazon Rekognition&lt;br&gt;DetectFaces" style="sketch=0;points=[[0,0,0],[0.25,0,0],[0.5,0,0],[0.75,0,0],[1,0,0],[0,1,0],[0.25,1,0],[0.5,1,0],[0.75,1,0],[1,1,0],[0,0.25,0],[0,0.5,0],[0,0.75,0],[1,0.25,0],[1,0.5,0],[1,0.75,0]];outlineConnect=0;fontColor=#232F3E;fillColor=#01A88D;strokeColor=#ffffff;dashed=0;verticalLabelPosition=bottom;verticalAlign=top;align=center;html=1;fontSize=12;fontStyle=0;aspect=fixed;shape=mxgraph.aws4.resourceIcon;resIcon=mxgraph.aws4.rekognition_2;" vertex="1" parent="1">
          <mxGeometry x="630" y="181" width="78" height="78" as="geometry" />
        </mxCell>
        <mxCell id="ZMr_ggHSKK7B4-azLc8F-13" style="edgeStyle=orthogonalEdgeStyle;rounded=0;orthogonalLoop=1;jettySize=auto;html=1;" edge="1" parent="1" source="ZMr_ggHSKK7B4-azLc8F-9" target="ZMr_ggHSKK7B4-azLc8F-10">
          <mxGeometry relative="1" as="geometry" />
        </mxCell>
        <mxCell id="ZMr_ggHSKK7B4-azLc8F-9" value="Amazon Cognito&lt;br&gt;Sign In" style="sketch=0;points=[[0,0,0],[0.25,0,0],[0.5,0,0],[0.75,0,0],[1,0,0],[0,1,0],[0.25,1,0],[0.5,1,0],[0.75,1,0],[1,1,0],[0,0.25,0],[0,0.5,0],[0,0.75,0],[1,0.25,0],[1,0.5,0],[1,0.75,0]];outlineConnect=0;fontColor=#232F3E;fillColor=#DD344C;strokeColor=#ffffff;dashed=0;verticalLabelPosition=top;verticalAlign=bottom;align=center;html=1;fontSize=12;fontStyle=0;aspect=fixed;shape=mxgraph.aws4.resourceIcon;resIcon=mxgraph.aws4.cognito;labelPosition=center;" vertex="1" parent="1">
          <mxGeometry x="392" y="370" width="78" height="78" as="geometry" />
        </mxCell>
        <mxCell id="ZMr_ggHSKK7B4-azLc8F-14" style="edgeStyle=orthogonalEdgeStyle;rounded=0;orthogonalLoop=1;jettySize=auto;html=1;" edge="1" parent="1" source="ZMr_ggHSKK7B4-azLc8F-10" target="ZMr_ggHSKK7B4-azLc8F-5">
          <mxGeometry relative="1" as="geometry" />
        </mxCell>
        <mxCell id="ZMr_ggHSKK7B4-azLc8F-10" value="AWS Lambda&lt;br&gt;Pre Sign In Trigger" style="sketch=0;points=[[0,0,0],[0.25,0,0],[0.5,0,0],[0.75,0,0],[1,0,0],[0,1,0],[0.25,1,0],[0.5,1,0],[0.75,1,0],[1,1,0],[0,0.25,0],[0,0.5,0],[0,0.75,0],[1,0.25,0],[1,0.5,0],[1,0.75,0]];outlineConnect=0;fontColor=#232F3E;fillColor=#ED7100;strokeColor=#ffffff;dashed=0;verticalLabelPosition=top;verticalAlign=bottom;align=center;html=1;fontSize=12;fontStyle=0;aspect=fixed;shape=mxgraph.aws4.resourceIcon;resIcon=mxgraph.aws4.lambda;labelPosition=center;" vertex="1" parent="1">
          <mxGeometry x="510" y="369" width="80" height="80" as="geometry" />
        </mxCell>
        <mxCell id="ZMr_ggHSKK7B4-azLc8F-11" value="Amazon S3&lt;br&gt;Sign In Image" style="sketch=0;points=[[0,0,0],[0.25,0,0],[0.5,0,0],[0.75,0,0],[1,0,0],[0,1,0],[0.25,1,0],[0.5,1,0],[0.75,1,0],[1,1,0],[0,0.25,0],[0,0.5,0],[0,0.75,0],[1,0.25,0],[1,0.5,0],[1,0.75,0]];outlineConnect=0;fontColor=#232F3E;fillColor=#7AA116;strokeColor=#ffffff;dashed=0;verticalLabelPosition=middle;verticalAlign=middle;align=right;html=1;fontSize=12;fontStyle=0;aspect=fixed;shape=mxgraph.aws4.resourceIcon;resIcon=mxgraph.aws4.s3;labelPosition=left;" vertex="1" parent="1">
          <mxGeometry x="240" y="502" width="78" height="78" as="geometry" />
        </mxCell>
      </root>
    </mxGraphModel>
  </diagram>
</mxfile>
